M48
; DRILL file {KiCad 8.0.3-8.0.3-0~ubuntu23.10.1} date 2024-06-26T19:31:18+0200
; FORMAT={-:-/ absolute / metric / decimal}
; #@! TF.CreationDate,2024-06-26T19:31:18+02:00
; #@! TF.GenerationSoftware,Kicad,Pcbnew,8.0.3-8.0.3-0~ubuntu23.10.1
; #@! TF.FileFunction,Plated,1,2,PTH
FMAT,2
METRIC
; #@! TA.AperFunction,Plated,PTH,ComponentDrill
T1C1.000
%
G90
G05
T1
X3.75Y16.79
X3.75Y14.25
X3.75Y9.87
X3.75Y7.33
X3.75Y4.79
X3.75Y2.25
X8.92Y12.25
X8.92Y8.75
X8.92Y5.25
X8.92Y1.75
X19.08Y12.25
X19.08Y8.75
X19.08Y5.25
X19.08Y1.75
X22.045Y2.75
X23.25Y17.205
X23.25Y14.705
X23.25Y10.705
X23.25Y8.205
X24.545Y2.75
X27.67Y1.75
X28.5Y13.3
X28.5Y10.76
X28.5Y8.22
X28.5Y5.68
X36.12Y13.3
X36.12Y10.76
X36.12Y8.22
X36.12Y5.68
X37.83Y1.75
X41.75Y11.25
X41.75Y8.71
M30
