%TF.GenerationSoftware,KiCad,Pcbnew,8.0.3-8.0.3-0~ubuntu23.10.1*%
%TF.CreationDate,2024-06-26T19:30:55+02:00*%
%TF.ProjectId,SolarAmp,536f6c61-7241-46d7-902e-6b696361645f,1*%
%TF.SameCoordinates,PX5204180PY44aa200*%
%TF.FileFunction,Copper,L1,Top*%
%TF.FilePolarity,Positive*%
%FSLAX46Y46*%
G04 Gerber Fmt 4.6, Leading zero omitted, Abs format (unit mm)*
G04 Created by KiCad (PCBNEW 8.0.3-8.0.3-0~ubuntu23.10.1) date 2024-06-26 19:30:55*
%MOMM*%
%LPD*%
G01*
G04 APERTURE LIST*
%TA.AperFunction,ComponentPad*%
%ADD10R,2.400000X1.600000*%
%TD*%
%TA.AperFunction,ComponentPad*%
%ADD11O,2.400000X1.600000*%
%TD*%
%TA.AperFunction,ComponentPad*%
%ADD12R,1.700000X1.700000*%
%TD*%
%TA.AperFunction,ComponentPad*%
%ADD13C,1.700000*%
%TD*%
%TA.AperFunction,ComponentPad*%
%ADD14O,1.700000X1.600000*%
%TD*%
%TA.AperFunction,WasherPad*%
%ADD15C,1.100000*%
%TD*%
%TA.AperFunction,ComponentPad*%
%ADD16R,2.200000X1.700000*%
%TD*%
%TA.AperFunction,ComponentPad*%
%ADD17O,2.200000X1.700000*%
%TD*%
%TA.AperFunction,Conductor*%
%ADD18C,0.800000*%
%TD*%
G04 APERTURE END LIST*
D10*
%TO.P,U1,1*%
%TO.N,Net-(J2-Pin_1)*%
X36120000Y13300000D03*
D11*
%TO.P,U1,2,V+*%
%TO.N,+5V*%
X36120000Y10760000D03*
%TO.P,U1,3*%
%TO.N,Net-(J2-Pin_2)*%
X36120000Y8220000D03*
%TO.P,U1,4,V-*%
%TO.N,GND*%
X36120000Y5680000D03*
%TO.P,U1,5,-*%
%TO.N,Net-(U1B--)*%
X28500000Y5680000D03*
%TO.P,U1,6,+*%
%TO.N,GND*%
X28500000Y8220000D03*
%TO.P,U1,7,+*%
%TO.N,Net-(U1A-+)*%
X28500000Y10760000D03*
%TO.P,U1,8,-*%
%TO.N,Net-(U1A--)*%
X28500000Y13300000D03*
%TD*%
D12*
%TO.P,C2,1*%
%TO.N,Net-(C2-Pad1)*%
X22044887Y2750000D03*
D13*
%TO.P,C2,2*%
%TO.N,Net-(U1A-+)*%
X24544887Y2750000D03*
%TD*%
D12*
%TO.P,C3,1*%
%TO.N,+5V*%
X23250000Y17205112D03*
D13*
%TO.P,C3,2*%
%TO.N,GND*%
X23250000Y14705112D03*
%TD*%
%TO.P,R3,1*%
%TO.N,Net-(J1-Pin_2)*%
X8920000Y5250000D03*
D14*
%TO.P,R3,2*%
%TO.N,Net-(C2-Pad1)*%
X19080000Y5250000D03*
%TD*%
D13*
%TO.P,R5,1*%
%TO.N,Net-(J1-Pin_4)*%
X8920000Y12250000D03*
D14*
%TO.P,R5,2*%
%TO.N,Net-(C2-Pad1)*%
X19080000Y12250000D03*
%TD*%
D15*
%TO.P,J3,*%
%TO.N,*%
X1210000Y14250000D03*
X1210000Y16790000D03*
D16*
%TO.P,J3,1,Pin_1*%
%TO.N,GND*%
X3750000Y14250000D03*
D17*
%TO.P,J3,2,Pin_2*%
%TO.N,+5V*%
X3750000Y16790000D03*
%TD*%
D15*
%TO.P,J2,*%
%TO.N,*%
X44290000Y11250000D03*
X44290000Y8710000D03*
D16*
%TO.P,J2,1,Pin_1*%
%TO.N,Net-(J2-Pin_1)*%
X41750000Y11250000D03*
D17*
%TO.P,J2,2,Pin_2*%
%TO.N,Net-(J2-Pin_2)*%
X41750000Y8710000D03*
%TD*%
D13*
%TO.P,R4,1*%
%TO.N,Net-(J1-Pin_3)*%
X8920000Y8750000D03*
D14*
%TO.P,R4,2*%
%TO.N,Net-(C2-Pad1)*%
X19080000Y8750000D03*
%TD*%
D13*
%TO.P,R1,1*%
%TO.N,Net-(J1-Pin_1)*%
X8920000Y1750000D03*
D14*
%TO.P,R1,2*%
%TO.N,Net-(C2-Pad1)*%
X19080000Y1750000D03*
%TD*%
D12*
%TO.P,C1,1*%
%TO.N,Net-(U1A--)*%
X23250000Y10705112D03*
D13*
%TO.P,C1,2*%
%TO.N,Net-(U1B--)*%
X23250000Y8205112D03*
%TD*%
D16*
%TO.P,J1,1,Pin_1*%
%TO.N,Net-(J1-Pin_1)*%
X3750000Y2250000D03*
D17*
%TO.P,J1,2,Pin_2*%
%TO.N,Net-(J1-Pin_2)*%
X3750000Y4790000D03*
%TO.P,J1,3,Pin_3*%
%TO.N,Net-(J1-Pin_3)*%
X3750000Y7330000D03*
%TO.P,J1,4,Pin_4*%
%TO.N,Net-(J1-Pin_4)*%
X3750000Y9870000D03*
%TD*%
D13*
%TO.P,R2,1*%
%TO.N,GND*%
X37830000Y1750000D03*
D14*
%TO.P,R2,2*%
%TO.N,Net-(U1A-+)*%
X27670000Y1750000D03*
%TD*%
D18*
%TO.N,Net-(U1A--)*%
X28500000Y13300000D02*
X25844888Y13300000D01*
X25844888Y13300000D02*
X23250000Y10705112D01*
%TO.N,Net-(U1B--)*%
X25775112Y5680000D02*
X28500000Y5680000D01*
X23250000Y8205112D02*
X25775112Y5680000D01*
%TO.N,Net-(U1A-+)*%
X31700000Y8760000D02*
X31700000Y4230000D01*
X29700000Y10760000D02*
X31700000Y8760000D01*
X25544887Y1750000D02*
X24544887Y2750000D01*
X29220000Y1750000D02*
X27670000Y1750000D01*
X27670000Y1750000D02*
X25544887Y1750000D01*
X31700000Y4230000D02*
X29220000Y1750000D01*
X28500000Y10760000D02*
X29700000Y10760000D01*
%TO.N,Net-(C2-Pad1)*%
X22044887Y2750000D02*
X19000000Y2750000D01*
X19000000Y1830000D02*
X19000000Y2750000D01*
X19000000Y2750000D02*
X19000000Y5170000D01*
X19000000Y5330000D02*
X19000000Y8670000D01*
X19000000Y8830000D02*
X19000000Y12170000D01*
%TO.N,+5V*%
X3750000Y16790000D02*
X22834888Y16790000D01*
X22834888Y16790000D02*
X23250000Y17205112D01*
X28991944Y17205112D02*
X35437056Y10760000D01*
X35437056Y10760000D02*
X36120000Y10760000D01*
X23250000Y17205112D02*
X28991944Y17205112D01*
%TO.N,GND*%
X22794888Y14250000D02*
X23250000Y14705112D01*
X35320000Y5680000D02*
X36120000Y5680000D01*
X28500000Y8220000D02*
X28622742Y8220000D01*
X30500000Y5000000D02*
X29000000Y3500000D01*
X34120000Y6880000D02*
X35320000Y5680000D01*
X36075000Y5680000D02*
X38075000Y5680000D01*
X26350000Y4400000D02*
X24721659Y4400000D01*
X38075000Y5680000D02*
X38075000Y1995000D01*
X23250000Y14705112D02*
X24100000Y15555112D01*
X21600000Y7521659D02*
X21600000Y13055112D01*
X3750000Y14250000D02*
X22794888Y14250000D01*
X27250000Y3500000D02*
X26350000Y4400000D01*
X34120000Y10380000D02*
X34120000Y6880000D01*
X21600000Y13055112D02*
X23250000Y14705112D01*
X24721659Y4400000D02*
X21600000Y7521659D01*
X30500000Y6342742D02*
X30500000Y5000000D01*
X24100000Y15555112D02*
X28944888Y15555112D01*
X29000000Y3500000D02*
X27250000Y3500000D01*
X28944888Y15555112D02*
X34120000Y10380000D01*
X28622742Y8220000D02*
X30500000Y6342742D01*
%TO.N,Net-(J1-Pin_1)*%
X8420000Y2250000D02*
X8920000Y1750000D01*
X3750000Y2250000D02*
X8420000Y2250000D01*
%TO.N,Net-(J1-Pin_2)*%
X3750000Y4790000D02*
X8460000Y4790000D01*
X8460000Y4790000D02*
X8920000Y5250000D01*
%TO.N,Net-(J2-Pin_1)*%
X39700000Y13300000D02*
X41750000Y11250000D01*
X36120000Y13300000D02*
X39700000Y13300000D01*
%TO.N,Net-(J2-Pin_2)*%
X41260000Y8220000D02*
X41750000Y8710000D01*
X36120000Y8220000D02*
X41260000Y8220000D01*
%TO.N,Net-(J1-Pin_3)*%
X7500000Y7330000D02*
X8920000Y8750000D01*
X3750000Y7330000D02*
X7500000Y7330000D01*
%TO.N,Net-(J1-Pin_4)*%
X6540000Y9870000D02*
X8920000Y12250000D01*
X3750000Y9870000D02*
X6540000Y9870000D01*
%TD*%
M02*
