M48
; DRILL file {KiCad 8.0.3-8.0.3-0~ubuntu23.10.1} date 2024-06-28T14:27:34+0200
; FORMAT={-:-/ absolute / metric / decimal}
; #@! TF.CreationDate,2024-06-28T14:27:34+02:00
; #@! TF.GenerationSoftware,Kicad,Pcbnew,8.0.3-8.0.3-0~ubuntu23.10.1
; #@! TF.FileFunction,MixedPlating,1,2
FMAT,2
METRIC
; #@! TA.AperFunction,Plated,PTH,ComponentDrill
T1C1.000
%
G90
G05
T1
X2.75Y9.33
X2.75Y6.79
X2.75Y4.25
X2.75Y1.71
X3.75Y16.75
X3.75Y14.25
X6.17Y8.75
X6.17Y5.25
X6.17Y1.75
X11.0Y16.75
X11.0Y14.25
X16.33Y8.75
X16.33Y5.25
X16.33Y1.75
X18.25Y16.75
X18.25Y14.25
X18.75Y1.75
X18.84Y5.25
X23.0Y14.25
X23.0Y9.25
X23.75Y1.75
X28.675Y16.75
X28.675Y14.25
X28.675Y10.775
X28.675Y8.275
X29.0Y5.25
X33.095Y1.75
X33.925Y13.37
X33.925Y10.83
X33.925Y8.29
X33.925Y5.75
X41.545Y13.37
X41.545Y10.83
X41.545Y8.29
X41.545Y5.75
X43.255Y1.75
X46.25Y10.75
X46.25Y8.25
M30
