%TF.GenerationSoftware,KiCad,Pcbnew,8.0.3-8.0.3-0~ubuntu23.10.1*%
%TF.CreationDate,2024-06-28T14:27:20+02:00*%
%TF.ProjectId,SolarAmp,536f6c61-7241-46d7-902e-6b696361645f,1*%
%TF.SameCoordinates,PX54a37b0PY44aa200*%
%TF.FileFunction,Copper,L1,Top*%
%TF.FilePolarity,Positive*%
%FSLAX46Y46*%
G04 Gerber Fmt 4.6, Leading zero omitted, Abs format (unit mm)*
G04 Created by KiCad (PCBNEW 8.0.3-8.0.3-0~ubuntu23.10.1) date 2024-06-28 14:27:20*
%MOMM*%
%LPD*%
G01*
G04 APERTURE LIST*
G04 Aperture macros list*
%AMRoundRect*
0 Rectangle with rounded corners*
0 $1 Rounding radius*
0 $2 $3 $4 $5 $6 $7 $8 $9 X,Y pos of 4 corners*
0 Add a 4 corners polygon primitive as box body*
4,1,4,$2,$3,$4,$5,$6,$7,$8,$9,$2,$3,0*
0 Add four circle primitives for the rounded corners*
1,1,$1+$1,$2,$3*
1,1,$1+$1,$4,$5*
1,1,$1+$1,$6,$7*
1,1,$1+$1,$8,$9*
0 Add four rect primitives between the rounded corners*
20,1,$1+$1,$2,$3,$4,$5,0*
20,1,$1+$1,$4,$5,$6,$7,0*
20,1,$1+$1,$6,$7,$8,$9,0*
20,1,$1+$1,$8,$9,$2,$3,0*%
G04 Aperture macros list end*
%TA.AperFunction,ComponentPad*%
%ADD10R,1.700000X1.700000*%
%TD*%
%TA.AperFunction,ComponentPad*%
%ADD11O,1.700000X1.700000*%
%TD*%
%TA.AperFunction,ComponentPad*%
%ADD12O,2.000000X1.700000*%
%TD*%
%TA.AperFunction,ComponentPad*%
%ADD13RoundRect,0.250000X0.750000X-0.600000X0.750000X0.600000X-0.750000X0.600000X-0.750000X-0.600000X0*%
%TD*%
%TA.AperFunction,ComponentPad*%
%ADD14RoundRect,0.250000X-0.750000X0.600000X-0.750000X-0.600000X0.750000X-0.600000X0.750000X0.600000X0*%
%TD*%
%TA.AperFunction,ComponentPad*%
%ADD15C,1.600000*%
%TD*%
%TA.AperFunction,ComponentPad*%
%ADD16R,2.400000X1.600000*%
%TD*%
%TA.AperFunction,ComponentPad*%
%ADD17O,2.400000X1.600000*%
%TD*%
%TA.AperFunction,ComponentPad*%
%ADD18C,1.700000*%
%TD*%
%TA.AperFunction,ComponentPad*%
%ADD19O,1.700000X1.600000*%
%TD*%
%TA.AperFunction,Conductor*%
%ADD20C,0.800000*%
%TD*%
G04 APERTURE END LIST*
D10*
%TO.P,J1,1,Pin_1*%
%TO.N,GND*%
X2750000Y9330000D03*
D11*
%TO.P,J1,2,Pin_2*%
%TO.N,Net-(J1-Pin_2)*%
X2750000Y6790000D03*
%TO.P,J1,3,Pin_3*%
%TO.N,Net-(J1-Pin_3)*%
X2750000Y4250000D03*
%TO.P,J1,4,Pin_4*%
%TO.N,Net-(J1-Pin_4)*%
X2750000Y1710000D03*
%TD*%
D12*
%TO.P,J5,2,Pin_2*%
%TO.N,+5V*%
X11000000Y16750000D03*
D13*
%TO.P,J5,1,Pin_1*%
%TO.N,GND*%
X11000000Y14250000D03*
%TD*%
D12*
%TO.P,J4,2,Pin_2*%
%TO.N,+5V*%
X18250000Y16750000D03*
D13*
%TO.P,J4,1,Pin_1*%
%TO.N,GND*%
X18250000Y14250000D03*
%TD*%
D12*
%TO.P,J3,2,Pin_2*%
%TO.N,+5V*%
X3750000Y16750000D03*
D13*
%TO.P,J3,1,Pin_1*%
%TO.N,GND*%
X3750000Y14250000D03*
%TD*%
D14*
%TO.P,J2,1,Pin_1*%
%TO.N,Net-(J2-Pin_1)*%
X46250000Y10750000D03*
D12*
%TO.P,J2,2,Pin_2*%
%TO.N,Net-(J2-Pin_2)*%
X46250000Y8250000D03*
%TD*%
D15*
%TO.P,C4,1*%
%TO.N,Net-(C4-Pad1)*%
X18750000Y1750000D03*
%TO.P,C4,2*%
%TO.N,Net-(U1A-+)*%
X23750000Y1750000D03*
%TD*%
%TO.P,C2,2*%
%TO.N,GND*%
X23000000Y14250000D03*
%TO.P,C2,1*%
%TO.N,Net-(U1B--)*%
X23000000Y9250000D03*
%TD*%
D16*
%TO.P,U1,1*%
%TO.N,Net-(J2-Pin_1)*%
X41545000Y13370000D03*
D17*
%TO.P,U1,2,V+*%
%TO.N,+5V*%
X41545000Y10830000D03*
%TO.P,U1,3*%
%TO.N,Net-(J2-Pin_2)*%
X41545000Y8290000D03*
%TO.P,U1,4,V-*%
%TO.N,GND*%
X41545000Y5750000D03*
%TO.P,U1,5,-*%
%TO.N,Net-(U1B--)*%
X33925000Y5750000D03*
%TO.P,U1,6,+*%
%TO.N,Net-(U1B-+)*%
X33925000Y8290000D03*
%TO.P,U1,7,+*%
%TO.N,Net-(U1A-+)*%
X33925000Y10830000D03*
%TO.P,U1,8,-*%
%TO.N,Net-(U1A--)*%
X33925000Y13370000D03*
%TD*%
D10*
%TO.P,C3,1*%
%TO.N,+5V*%
X28675000Y16750000D03*
D18*
%TO.P,C3,2*%
%TO.N,GND*%
X28675000Y14250000D03*
%TD*%
%TO.P,R3,1*%
%TO.N,Net-(J1-Pin_3)*%
X6170000Y5250000D03*
D19*
%TO.P,R3,2*%
%TO.N,Net-(C4-Pad1)*%
X16330000Y5250000D03*
%TD*%
D18*
%TO.P,R5,1*%
%TO.N,GND*%
X18840000Y5250000D03*
D19*
%TO.P,R5,2*%
%TO.N,Net-(U1B-+)*%
X29000000Y5250000D03*
%TD*%
D18*
%TO.P,R4,1*%
%TO.N,Net-(J1-Pin_2)*%
X6170000Y8750000D03*
D19*
%TO.P,R4,2*%
%TO.N,Net-(C4-Pad1)*%
X16330000Y8750000D03*
%TD*%
D18*
%TO.P,R1,1*%
%TO.N,Net-(J1-Pin_4)*%
X6170000Y1750000D03*
D19*
%TO.P,R1,2*%
%TO.N,Net-(C4-Pad1)*%
X16330000Y1750000D03*
%TD*%
D10*
%TO.P,C1,1*%
%TO.N,Net-(U1A--)*%
X28675000Y10775112D03*
D18*
%TO.P,C1,2*%
%TO.N,Net-(U1B--)*%
X28675000Y8275112D03*
%TD*%
%TO.P,R2,1*%
%TO.N,GND*%
X43255000Y1750000D03*
D19*
%TO.P,R2,2*%
%TO.N,Net-(U1A-+)*%
X33095000Y1750000D03*
%TD*%
D20*
%TO.N,Net-(U1A-+)*%
X23750000Y1750000D02*
X33095000Y1750000D01*
%TO.N,+5V*%
X3750000Y16790000D02*
X3790000Y16750000D01*
X3790000Y16750000D02*
X18210000Y16750000D01*
X18210000Y16750000D02*
X18250000Y16790000D01*
%TO.N,Net-(J2-Pin_2)*%
X46250000Y8250000D02*
X41585000Y8250000D01*
X41585000Y8250000D02*
X41545000Y8290000D01*
%TO.N,Net-(J2-Pin_1)*%
X43630000Y13370000D02*
X46250000Y10750000D01*
X41545000Y13370000D02*
X43630000Y13370000D01*
%TO.N,GND*%
X41500000Y5750000D02*
X41500000Y4065000D01*
X41500000Y4065000D02*
X43500000Y2065000D01*
%TO.N,+5V*%
X18250000Y16750000D02*
X28675000Y16750000D01*
%TO.N,GND*%
X18840000Y5250000D02*
X18840000Y13660000D01*
X18840000Y13660000D02*
X18250000Y14250000D01*
X3750000Y14250000D02*
X23000000Y14250000D01*
X2750000Y9330000D02*
X2750000Y13250000D01*
X2750000Y13250000D02*
X3750000Y14250000D01*
%TO.N,Net-(J1-Pin_2)*%
X2750000Y6790000D02*
X4210000Y6790000D01*
X4210000Y6790000D02*
X6170000Y8750000D01*
%TO.N,Net-(J1-Pin_3)*%
X2750000Y4250000D02*
X5170000Y4250000D01*
X5170000Y4250000D02*
X6170000Y5250000D01*
%TO.N,Net-(J1-Pin_4)*%
X2750000Y1710000D02*
X6130000Y1710000D01*
X6130000Y1710000D02*
X6170000Y1750000D01*
%TO.N,Net-(U1B--)*%
X28675000Y8275112D02*
X23974888Y8275112D01*
X23974888Y8275112D02*
X23000000Y9250000D01*
X32402193Y5750000D02*
X33925000Y5750000D01*
%TO.N,Net-(U1B-+)*%
X32675000Y3570000D02*
X34425000Y3570000D01*
%TO.N,Net-(U1B--)*%
X29877081Y8275112D02*
X32402193Y5750000D01*
X28675000Y8275112D02*
X29877081Y8275112D01*
%TO.N,Net-(U1B-+)*%
X29000000Y5250000D02*
X30995000Y5250000D01*
X30995000Y5250000D02*
X32675000Y3570000D01*
X34425000Y3570000D02*
X35925000Y5070000D01*
X35925000Y5070000D02*
X35925000Y6412742D01*
X35925000Y6412742D02*
X34047742Y8290000D01*
%TO.N,+5V*%
X40862056Y10830000D02*
X34942056Y16750000D01*
X28675000Y16750000D02*
X34942056Y16750000D01*
%TO.N,GND*%
X39545000Y6550000D02*
X40345000Y5750000D01*
X39545000Y10450000D02*
X39545000Y6550000D01*
X34895000Y15100000D02*
X39545000Y10450000D01*
X28675000Y14250000D02*
X29525000Y15100000D01*
X29525000Y15100000D02*
X34895000Y15100000D01*
X40345000Y5750000D02*
X41545000Y5750000D01*
X28675000Y14250000D02*
X23000000Y14250000D01*
%TO.N,Net-(C4-Pad1)*%
X16330000Y1750000D02*
X18750000Y1750000D01*
%TO.N,Net-(U1A--)*%
X33925000Y13370000D02*
X31269888Y13370000D01*
X31269888Y13370000D02*
X28675000Y10775112D01*
%TO.N,Net-(U1A-+)*%
X37125000Y8830000D02*
X37125000Y4300000D01*
X35125000Y10830000D02*
X37125000Y8830000D01*
X34645000Y1820000D02*
X33095000Y1820000D01*
X37125000Y4300000D02*
X34645000Y1820000D01*
X33925000Y10830000D02*
X35125000Y10830000D01*
%TO.N,Net-(C4-Pad1)*%
X16250000Y1830000D02*
X16250000Y2750000D01*
X16250000Y2750000D02*
X16250000Y5170000D01*
X16250000Y5330000D02*
X16250000Y8670000D01*
%TD*%
M02*
