M48
; DRILL file {KiCad 8.0.0} date 2024-06-11T16:33:13+0200
; FORMAT={-:-/ absolute / metric / decimal}
; #@! TF.CreationDate,2024-06-11T16:33:13+02:00
; #@! TF.GenerationSoftware,Kicad,Pcbnew,8.0.0
; #@! TF.FileFunction,Plated,1,2,PTH
FMAT,2
METRIC
; #@! TA.AperFunction,Plated,PTH,ComponentDrill
T1C0.800
; #@! TA.AperFunction,Plated,PTH,ComponentDrill
T2C1.000
; #@! TA.AperFunction,Plated,PTH,ComponentDrill
T3C3.000
%
G90
G05
T1
X7.908Y19.0
X8.498Y34.0
X8.793Y30.325
X8.793Y22.705
X11.333Y30.325
X11.333Y22.705
X13.873Y30.325
X13.873Y22.705
X16.413Y30.325
X16.413Y22.705
X18.068Y19.0
X18.658Y34.0
X18.953Y30.325
X18.953Y22.705
X21.493Y30.325
X21.493Y22.705
X24.033Y30.325
X24.033Y22.705
X35.158Y17.83
X35.158Y7.67
X41.688Y17.83
X41.688Y7.67
X44.908Y10.33
X46.658Y49.75
X46.688Y43.33
X46.688Y38.33
X46.688Y35.83
X46.688Y30.83
X46.688Y28.33
X46.688Y23.33
X46.688Y20.33
X46.688Y15.33
X47.448Y10.33
X49.988Y10.33
X50.688Y32.33
X50.688Y22.17
X56.818Y49.75
X71.188Y23.75
X71.188Y13.59
X72.868Y9.75
X75.408Y9.75
X75.658Y49.75
X75.688Y44.25
X75.688Y39.25
X75.688Y36.75
X75.688Y31.75
X75.688Y29.25
X75.688Y24.25
X75.688Y21.75
X75.688Y16.75
X77.948Y9.75
X79.688Y32.75
X79.688Y22.59
X85.818Y49.75
X94.688Y30.25
X94.688Y25.25
X98.688Y46.25
X98.688Y41.25
X98.688Y38.75
X98.688Y33.75
X98.688Y25.25
X98.688Y15.09
X98.908Y49.75
X100.408Y9.5
X102.408Y22.5
X102.408Y17.5
X102.948Y9.5
X103.188Y35.75
X103.188Y25.59
X105.488Y9.5
X109.068Y49.75
T2
X2.158Y27.515
X2.158Y24.975
X4.658Y40.345
X5.908Y51.0
X5.908Y3.5
X6.658Y46.017
X6.658Y41.017
X8.658Y46.689
X10.158Y8.406
X12.158Y14.078
X12.158Y9.078
X14.158Y14.75
X14.908Y51.25
X18.158Y40.0
X20.158Y45.672
X20.158Y40.672
X21.158Y3.5
X22.158Y46.344
X24.268Y51.0
X24.658Y8.5
X26.658Y14.172
X26.658Y9.172
X28.658Y14.844
X32.158Y51.03
X32.658Y23.656
X34.658Y29.328
X34.658Y24.328
X34.908Y3.5
X35.908Y51.03
X36.658Y30.0
X39.658Y51.03
X47.408Y3.5
X52.188Y43.08
X52.188Y39.33
X52.188Y35.58
X52.188Y19.58
X52.188Y15.83
X52.188Y12.08
X62.658Y49.75
X75.408Y3.5
X79.688Y19.0
X79.688Y15.25
X79.688Y11.5
X79.908Y43.0
X79.908Y39.25
X79.908Y35.5
X90.408Y49.75
X102.908Y3.5
X105.688Y19.25
X105.688Y15.5
X105.688Y11.75
X105.763Y42.75
X105.763Y39.0
X105.763Y35.25
X108.688Y24.078
X110.688Y29.75
X110.688Y24.75
X112.688Y30.422
X116.158Y49.75
X121.188Y28.525
X121.188Y25.985
T3
X29.658Y40.53
X42.158Y40.53
X62.688Y45.58
X62.688Y33.08
X62.688Y22.08
X62.688Y9.58
X90.188Y21.5
X90.188Y9.0
X90.408Y45.5
X90.408Y33.0
X116.188Y21.75
X116.188Y9.25
X116.263Y45.25
X116.263Y32.75
M30
